# xmcd
# 
# Track frame offsets:
#     150
#     51806
#     101415
#     154442
# 
# Disc length: 2803
# 
# Revision: 0
# Processed by: cddbd v1.5.2PL0 Copyright (c) Steve Scherf et al.
# Submitted via: fre:ac v1.0.17
# 
DISCID=2c0af104
DTITLE=Go Wild! Mission Wildnis - 04 Das Wettangeln
DYEAR=0
DGENRE=Audiobook
TTITLE0=01 - Schnabeltier Omlette (Teil I)
TTITLE1=02 - Schnabeltier Omlette (Teil II)
TTITLE2=03 - Das Wettangeln (Teil I)
TTITLE3=04 - Das Wettangeln (Teil II)
EXTD=
EXTT0=
EXTT1=
EXTT2=
EXTT3=
PLAYORDER=
